<svg xmlns="http://www.w3.org/2000/svg" width="256" height="256" viewBox="0 0 100 100"><rect width="100" height="100" rx="20" fill="#634fe9"></rect><path fill="#a2ea45" d="M62.42 51.53L62.42 71.06Q62.42 72.68 61.48 73.76Q60.53 74.84 58.64 75.83L58.64 75.83Q56.39 76.91 52.43 77.72Q48.47 78.53 44.42 78.53L44.42 78.53Q38.12 78.53 32.90 76.82Q27.68 75.11 23.90 71.60Q20.12 68.09 18.05 62.73Q15.98 57.38 15.98 50.09L15.98 50.09Q15.98 42.89 18.14 37.49Q20.30 32.09 24.04 28.54Q27.77 24.98 32.72 23.23Q37.67 21.47 43.25 21.47L43.25 21.47Q47.03 21.47 50.23 22.10Q53.42 22.73 55.67 23.77Q57.92 24.80 59.18 26.06Q60.44 27.32 60.44 28.58L60.44 28.58Q60.44 29.84 59.72 30.74Q59 31.64 58.01 32.09L58.01 32.09Q55.58 30.47 52.25 29.08Q48.92 27.68 43.70 27.68L43.70 27.68Q39.38 27.68 35.69 29.12Q32 30.56 29.30 33.35Q26.60 36.14 25.07 40.37Q23.54 44.60 23.54 50.09L23.54 50.09Q23.54 55.94 25.12 60.13Q26.69 64.31 29.53 67.01Q32.36 69.71 36.19 71.02Q40.01 72.32 44.51 72.32L44.51 72.32Q47.75 72.32 50.63 71.78Q53.51 71.24 55.13 70.43L55.13 70.43L55.13 53.87L41.54 53.87Q41.27 53.42 41 52.66Q40.73 51.89 40.73 50.99L40.73 50.99Q40.73 49.46 41.45 48.61Q42.17 47.75 43.52 47.75L43.52 47.75L58.55 47.75Q60.17 47.75 61.30 48.78Q62.42 49.82 62.42 51.53L62.42 51.53ZM84.02 77.18L84.02 77.18Q83.57 77.36 82.67 77.58Q81.77 77.81 80.69 77.81L80.69 77.81Q76.73 77.81 76.73 74.48L76.73 74.48L76.73 22.82Q77.18 22.64 78.13 22.41Q79.07 22.19 80.15 22.19L80.15 22.19Q84.02 22.19 84.02 25.52L84.02 25.52L84.02 77.18Z"></path></svg>